<?xml version="1.0" encoding="utf-8"?>
<!-- Svg Vector Icons : http://www.onlinewebfonts.com/icon -->
<!DOCTYPE svg PUBLIC "-//W3C//DTD SVG 1.1//EN" "http://www.w3.org/Graphics/SVG/1.1/DTD/svg11.dtd">
<svg version="1.1" xmlns="http://www.w3.org/2000/svg" xmlns:xlink="http://www.w3.org/1999/xlink" x="0px" y="0px" viewBox="0 0 1000 1000" enable-background="new 0 0 1000 1000" xml:space="preserve">
<metadata> Svg Vector Icons : http://www.onlinewebfonts.com/icon </metadata>
<g><path d="M984.7,543.2c10.8,26.2,4.8,56.3-15.2,76.3l-140,140C815.8,773.1,797.9,780,780,780c-17.9,0-35.8-6.9-49.5-20.5l-140-140c-20-20-26-50.1-15.2-76.3c10.8-26.1,36.4-43.2,64.7-43.2h70c0-154.6-125.4-280-280-280c-154.6,0-280,125.4-280,280s125.4,280,280,280c36.5,0,71-7.4,103-20.1l105.6,104.3C577.1,899.5,505.9,920,430,920C198.1,920,10,731.9,10,500S198.1,80,430,80c231.9,0,420,188.1,420,420h70C948.3,500,973.9,517.1,984.7,543.2z"/></g>
</svg>